# xmcd CD database file
#
# Track frame offsets:
#	150
#	13795
#	28617
#	42597
#	56927
#	70527
#	85075
#	97697
#	109657
#	122150
#	135292
#	148565
#	161390
#	174362
#	186735
#	201197
#	214925
#	229695
#	242447
#	255100
#	269527
#	282550
#	294835
#	309582
#	322747
#
# Disc length: 4574 seconds
#
# Revision: 0
# Processed by: cddbd v1.5.1PL0 Copyright (c) Steve Scherf et al.
# Submitted via: CDex 1.51
#
DISCID=5c11dc19
DTITLE=Count Basie - Good Morning Blues
DYEAR=1944
DGENRE=Jazz
TTITLE0=Honeysuckle Rose
TTITLE1=Good morning blues
TTITLE2=One o'clock jump
TTITLE3=Listen my children
TTITLE4=Sent for you yesterday
TTITLE5=Topsy
TTITLE6=Exactly like you
TTITLE7=Georgianna
TTITLE8=Smarty (you know it all)
TTITLE9=Now will you be good?
TTITLE10=Mama don't want no peas an' rice an' coconut oil
TTITLE11=Swingin' the blues
TTITLE12=Blame it on my last affair
TTITLE13=Do you wanna jump, children?
TTITLE14=Thursday
TTITLE15=Doggin' around
TTITLE16=You can depend on me
TTITLE17=Nobody knows
TTITLE18=Sing for your supper
TTITLE19=Jumpin' at the woodside
TTITLE20=Baby, don't tell on me
TTITLE21=I can't believe that you're in love with me
TTITLE22=Oh lady be good
TTITLE23=Somebody stole my gal
TTITLE24=Harvard blues
EXTD=YEAR: 1944
EXTT0=
EXTT1=
EXTT2=
EXTT3=
EXTT4=
EXTT5=
EXTT6=
EXTT7=
EXTT8=
EXTT9=
EXTT10=
EXTT11=
EXTT12=
EXTT13=
EXTT14=
EXTT15=
EXTT16=
EXTT17=
EXTT18=
EXTT19=
EXTT20=
EXTT21=
EXTT22=
EXTT23=
EXTT24=
PLAYORDER=
